<svg xmlns="http://www.w3.org/2000/svg" viewBox="0 0 512 512" role="img" aria-label="Mi Dieta icon">
	<defs>
		<linearGradient id="leafLg" x1="0" y1="0" x2="1" y2="1">
			<stop offset="0" stop-color="#a3e635" />
			<stop offset="1" stop-color="#22c55e" />
		</linearGradient>
		<linearGradient id="plateLg" x1="0" y1="0" x2="1" y2="1">
			<stop offset="0" stop-color="#34d399" />
			<stop offset="1" stop-color="#16a34a" />
		</linearGradient>
	</defs>

	<circle cx="256" cy="208" r="152" fill="#f3f4f6" />

	<ellipse cx="256" cy="380" rx="212" ry="72" fill="url(#plateLg)" />
	<ellipse cx="256" cy="380" rx="182" ry="52" fill="#ffffff" />
	<ellipse cx="256" cy="380" rx="145" ry="36" fill="#dcfce7" />

	<path d="M248 336c0-72 4-112 12-164" stroke="#14532d" stroke-width="14" stroke-linecap="round" fill="none" />
	<path d="M258 212c-66-32-120 10-96 58 52 8 94-12 110-58Z" fill="url(#leafLg)" stroke="#14532d" stroke-width="8" stroke-linejoin="round" />
	<path d="M266 188c44-76 152-80 170-8-36 64-124 78-170 8Z" fill="url(#leafLg)" stroke="#14532d" stroke-width="8" stroke-linejoin="round" />

	<path d="M150 370c24-24 56-22 74 2-23 22-52 22-74-2Z" fill="#86efac" stroke="#15803d" stroke-width="6" />
	<path d="M198 390c24-24 56-22 74 2-23 22-52 22-74-2Z" fill="#86efac" stroke="#15803d" stroke-width="6" />
	<path d="M244 368c24-24 56-22 74 2-23 22-52 22-74-2Z" fill="#86efac" stroke="#15803d" stroke-width="6" />
	<path d="M292 390c24-24 56-22 74 2-23 22-52 22-74-2Z" fill="#86efac" stroke="#15803d" stroke-width="6" />

	<circle cx="190" cy="386" r="16" fill="#ef4444" stroke="#991b1b" stroke-width="5" />
	<circle cx="324" cy="386" r="16" fill="#ef4444" stroke="#991b1b" stroke-width="5" />
	<circle cx="256" cy="396" r="17" fill="#facc15" stroke="#854d0e" stroke-width="5" />
</svg>